<svg width="44" height="44" viewBox="0 0 44 44" fill="none" xmlns="http://www.w3.org/2000/svg">
<path opacity="0.3" d="M21.84 44C33.9019 44 43.68 34.1503 43.68 22C43.68 9.84974 33.9019 0 21.84 0C9.7781 0 0 9.84974 0 22C0 34.1503 9.7781 44 21.84 44Z" fill="white"/>
<g clip-path="url(#clip0_1_8)">
<path d="M31.5023 10.4286H13.5503C11.8199 10.4286 10.36 11.8674 10.36 13.6935V31.6783C10.36 33.4491 11.7659 34.8879 13.5503 34.8879H31.5023C33.2326 34.8879 34.6385 33.4491 34.6385 31.6783V13.6382C34.6385 11.8674 33.2326 10.4286 31.5023 10.4286ZM22.5263 24.7611C18.0923 24.7611 14.4154 21.2748 14.0369 16.7371C13.9828 15.741 14.6858 14.9109 15.605 14.8556C16.5242 14.8003 17.3894 15.5197 17.4435 16.4604C17.6598 19.2826 20.0389 21.4408 22.8507 21.2194C25.338 21.0534 27.3387 19.0059 27.5009 16.4604C27.555 15.4643 28.3661 14.7449 29.3394 14.8003C29.826 14.8556 30.2586 15.077 30.583 15.409C30.9075 15.741 31.0156 16.239 31.0156 16.6817C30.6371 21.2748 26.9602 24.7611 22.5263 24.7611Z" fill="white"/>
</g>
<defs>
<clipPath id="clip0_1_8">
<rect width="25" height="25" fill="white" transform="translate(10 10)"/>
</clipPath>
</defs>
</svg>
