<svg width="25" height="25" viewBox="0 0 25 25" fill="none" xmlns="http://www.w3.org/2000/svg">
<path d="M21.5023 0.428589H3.55025C1.81994 0.428589 0.359985 1.86737 0.359985 3.69352V21.6783C0.359985 23.4491 1.76587 24.8879 3.55025 24.8879H21.5023C23.2326 24.8879 24.6385 23.4491 24.6385 21.6783V3.63818C24.6385 1.86737 23.2326 0.428589 21.5023 0.428589ZM12.5263 14.7611C8.09233 14.7611 4.41541 11.2748 4.03691 6.73709C3.98283 5.74101 4.68577 4.91095 5.605 4.85561C6.52423 4.80027 7.38939 5.51966 7.44347 6.4604C7.65975 9.28263 10.0389 11.4408 12.8507 11.2194C15.338 11.0534 17.3387 9.00594 17.5009 6.4604C17.555 5.46432 18.3661 4.74493 19.3394 4.80027C19.826 4.85561 20.2586 5.07696 20.583 5.40899C20.9075 5.74101 21.0156 6.23905 21.0156 6.68175C20.6371 11.2748 16.9602 14.7611 12.5263 14.7611Z" fill="white"/>
</svg>
